# xmcd
#
# Track frame offsets: 
#        150
#        16552
#        34817
#        48640
#        69060
#        85202
#        103420
#        130045
#        141892
#        157440
#        177292
#        193420
#
# Disc length: 2841 seconds
#
# Revision: 3
# Processed by: cddbd v1.5.2PL0 Copyright (c) Steve Scherf et al.
# Submitted via: ExactAudioCopyFreeDBPlugin 1.0
#
DISCID=a80b170c
DTITLE=Lou Rawls - Ballads
DYEAR=1997
DGENRE=
TTITLE0=At Last
TTITLE1=I Wonder Where Our Love Has Gone
TTITLE2=If I Were A Magician
TTITLE3=I'm Still In Love With You
TTITLE4=Sweet Slumber
TTITLE5=Good Morning Blues
TTITLE6=This Bitter Earth
TTITLE7=Save Your Love For Me
TTITLE8=One More Time
TTITLE9=Chains Of Love
TTITLE10=Oh, What A Nite
TTITLE11=Good Night My Love
EXTD=
EXTT0=
EXTT1=
EXTT2=
EXTT3=
EXTT4=
EXTT5=
EXTT6=
EXTT7=
EXTT8=
EXTT9=
EXTT10=
EXTT11=
PLAYORDER=
